<?xml version="1.0" encoding="utf-8"?>

<!DOCTYPE svg PUBLIC "-//W3C//DTD SVG 1.1//EN" "http://www.w3.org/Graphics/SVG/1.1/DTD/svg11.dtd">
<svg version="1.1" id="Layer_1" xmlns="http://www.w3.org/2000/svg" xmlns:xlink="http://www.w3.org/1999/xlink" x="0px" y="0px"
	 viewBox="0 0 1659.098 1659.098" enable-background="new 0 0 1659.098 1659.098" xml:space="preserve">
<g>
	<g>
		<polygon fill="none" stroke="#f59e0b" stroke-miterlimit="10" points="531.36,777.676 737.984,1345.373 143.032,1240.466 		"/>
	</g>
	<g>
		<polygon fill="none" stroke="#f59e0b" stroke-miterlimit="10" points="544.897,726.684 649.804,1321.636 82.107,1115.011 		"/>
	</g>
	<g>
		<polygon fill="none" stroke="#f59e0b" stroke-miterlimit="10" points="567.084,678.817 567.084,1282.948 43.892,980.882 		"/>
	</g>
	<g>
		<polygon fill="none" stroke="#f59e0b" stroke-miterlimit="10" points="597.246,635.531 492.34,1230.483 29.549,842.155 		"/>
	</g>
	<g>
		<polygon fill="none" stroke="#f59e0b" stroke-miterlimit="10" points="634.466,598.139 427.841,1165.836 39.514,703.045 		"/>
	</g>
	<g>
		<polygon fill="none" stroke="#f59e0b" stroke-miterlimit="10" points="677.614,567.779 375.549,1090.972 73.483,567.779 		"/>
	</g>
	<g>
		<polygon fill="none" stroke="#f59e0b" stroke-miterlimit="10" points="725.378,545.373 337.05,1008.164 130.425,440.466 		"/>
	</g>
	<g>
		<polygon fill="none" stroke="#f59e0b" stroke-miterlimit="10" points="776.307,531.601 313.516,919.929 208.61,324.976 		"/>
	</g>
	<g>
		<polygon fill="none" stroke="#f59e0b" stroke-miterlimit="10" points="828.854,526.882 305.662,828.947 305.662,224.817 		"/>
	</g>
	<g>
		<polygon fill="none" stroke="#f59e0b" stroke-miterlimit="10" points="881.422,531.36 313.725,737.984 418.631,143.032 		"/>
	</g>
	<g>
		<polygon fill="none" stroke="#f59e0b" stroke-miterlimit="10" points="932.414,544.897 337.462,649.804 544.087,82.107 		"/>
	</g>
	<g>
		<polygon fill="none" stroke="#f59e0b" stroke-miterlimit="10" points="980.281,567.084 376.15,567.084 678.216,43.892 		"/>
	</g>
	<g>
		<polygon fill="none" stroke="#f59e0b" stroke-miterlimit="10" points="1023.567,597.246 428.615,492.34 816.943,29.549 		"/>
	</g>
	<g>
		<polygon fill="none" stroke="#f59e0b" stroke-miterlimit="10" points="1060.959,634.466 493.262,427.841 956.053,39.514 		"/>
	</g>
	<g>
		<polygon fill="none" stroke="#f59e0b" stroke-miterlimit="10" points="1091.319,677.614 568.126,375.549 1091.319,73.483 		"/>
	</g>
	<g>
		<polygon fill="none" stroke="#f59e0b" stroke-miterlimit="10" points="1113.725,725.378 650.934,337.05 1218.631,130.425 		"/>
	</g>
	<g>
		<polygon fill="none" stroke="#f59e0b" stroke-miterlimit="10" points="1127.497,776.307 739.169,313.516 1334.122,208.61 		"/>
	</g>
	<g>
		<polygon fill="none" stroke="#f59e0b" stroke-miterlimit="10" points="1132.216,828.854 830.151,305.662 1434.281,305.662 		"/>
	</g>
	<g>
		<polygon fill="none" stroke="#f59e0b" stroke-miterlimit="10" points="1127.738,881.422 921.114,313.725 1516.066,418.631 		"/>
	</g>
	<g>
		<polygon fill="none" stroke="#f59e0b" stroke-miterlimit="10" points="1114.2,932.414 1009.294,337.462 1576.991,544.087 		"/>
	</g>
	<g>
		<polygon fill="none" stroke="#f59e0b" stroke-miterlimit="10" points="1092.014,980.281 1092.014,376.15 1615.206,678.216 		"/>
	</g>
	<g>
		<polygon fill="none" stroke="#f59e0b" stroke-miterlimit="10" points="1061.852,1023.567 1166.758,428.615 1629.549,816.943 		"/>
	</g>
	<g>
		<polygon fill="none" stroke="#f59e0b" stroke-miterlimit="10" points="1024.632,1060.959 1231.257,493.262 1619.584,956.053 		"/>
	</g>
	<g>
		<polygon fill="none" stroke="#f59e0b" stroke-miterlimit="10" points="981.484,1091.319 1283.549,568.126 1585.615,1091.319 		"/>
	</g>
	<g>
		<polygon fill="none" stroke="#f59e0b" stroke-miterlimit="10" points="933.72,1113.725 1322.048,650.934 1528.672,1218.631 		"/>
	</g>
	<g>
		<polygon fill="none" stroke="#f59e0b" stroke-miterlimit="10" points="882.791,1127.497 1345.582,739.169 1450.488,1334.122 		"/>
	</g>
	<g>
		<polygon fill="none" stroke="#f59e0b" stroke-miterlimit="10" points="830.244,1132.216 1353.436,830.151 1353.436,1434.281 		"/>
	</g>
	<g>
		<polygon fill="none" stroke="#f59e0b" stroke-miterlimit="10" points="777.676,1127.738 1345.373,921.114 1240.466,1516.066 		"/>
	</g>
	<g>
		<polygon fill="none" stroke="#f59e0b" stroke-miterlimit="10" points="726.684,1114.2 1321.636,1009.294 1115.011,1576.991 		"/>
	</g>
	<g>
		<polygon fill="none" stroke="#f59e0b" stroke-miterlimit="10" points="678.817,1092.014 1282.948,1092.014 980.882,1615.206 		"/>
	</g>
	<g>
		<polygon fill="none" stroke="#f59e0b" stroke-miterlimit="10" points="635.531,1061.852 1230.483,1166.758 842.155,1629.549 		"/>
	</g>
	<g>
		<polygon fill="none" stroke="#f59e0b" stroke-miterlimit="10" points="598.139,1024.632 1165.836,1231.257 703.045,1619.584 		"/>
	</g>
	<g>
		<polygon fill="none" stroke="#f59e0b" stroke-miterlimit="10" points="567.779,981.484 1090.972,1283.549 567.779,1585.615 		"/>
	</g>
	<g>
		<polygon fill="none" stroke="#f59e0b" stroke-miterlimit="10" points="545.373,933.72 1008.164,1322.048 440.466,1528.672 		"/>
	</g>
	<g>
		<polygon fill="none" stroke="#f59e0b" stroke-miterlimit="10" points="531.601,882.791 919.929,1345.582 324.976,1450.488 		"/>
	</g>
	<g>
		<polygon fill="none" stroke="#f59e0b" stroke-miterlimit="10" points="526.882,830.244 828.947,1353.436 224.817,1353.436 		"/>
	</g>
</g>
</svg>
