<?xml version="1.0" encoding="UTF-8" standalone="no"?><!--Created with Inkscape (http://www.inkscape.org/)--><svg xmlns:inkscape="http://www.inkscape.org/namespaces/inkscape" xmlns:rdf="http://www.w3.org/1999/02/22-rdf-syntax-ns#" xmlns="http://www.w3.org/2000/svg" xmlns:cc="http://creativecommons.org/ns#" xmlns:dc="http://purl.org/dc/elements/1.1/" xmlns:sodipodi="http://sodipodi.sourceforge.net/DTD/sodipodi-0.dtd" xmlns:svg="http://www.w3.org/2000/svg" xmlns:ns1="http://sozi.baierouge.fr" xmlns:xlink="http://www.w3.org/1999/xlink" id="svg3723" sodipodi:docname="sun3.svg" viewBox="0 0 2000.2 2000.2" version="1.1" inkscape:version="0.47 r22583"><sodipodi:namedview id="base" bordercolor="#666666" inkscape:pageshadow="2" inkscape:window-y="40" pagecolor="#ffffff" inkscape:window-height="675" inkscape:window-maximized="1" inkscape:zoom="0.23061081" inkscape:window-x="-4" showgrid="false" borderopacity="1.0" inkscape:current-layer="layer1" inkscape:cx="1000.1235" inkscape:cy="1000.1235" inkscape:window-width="1024" inkscape:pageopacity="0.0" inkscape:document-units="px"><inkscape:grid id="grid4774" enabled="true" visible="true" snapvisiblegridlinesonly="true" type="xygrid" empspacing="5"/></sodipodi:namedview><g id="layer1" inkscape:label="Ebene 1" inkscape:groupmode="layer" transform="translate(552.64 598.63)"><g id="g5162"><path id="path5160" sodipodi:rx="917.12958" sodipodi:ry="917.12958" style="fill:#f59e0b" sodipodi:type="arc" d="m1916.6 996.39a917.13 917.13 0 1 1 -1834.3 0 917.13 917.13 0 1 1 1834.3 0z" transform="matrix(.17730 0 0 .17730 271.66 225.1)" sodipodi:cy="996.3913" sodipodi:cx="999.51947"/><g id="g5134" transform="matrix(.91702 0 0 .91702 -1569.8 -1614.6)"><path id="path5029-4" style="fill:#f59e0b" d="m3065.8 1698.1-857.91 495.31 915.72-380.75c-16.856-39.568-36.198-77.806-57.812-114.56z"/><path id="path5021-4" style="fill:#f59e0b" d="m3167.5 1938.4-958.91 256.94 984.94-131c-6.0064-42.912-14.758-84.952-26.031-125.94z"/><path id="path5009-6" style="fill:#f59e0b" d="m2192.9 2198.5-982 130.59c5.3476 42.941 13.416 85.021 24.031 126.09l957.97-256.69z"/><path id="path5005-0" style="fill:#f59e0b" d="m2193.4 2200.5-916.56 381.06c16.283 39.932 35.086 78.56 56.188 115.72l860.38-496.78z"/><path id="path5094" style="fill:#f59e0b" d="m3199.9 2196.8-990.62 0.0001 983.41 128.12c5.1867-42.695 7.5549-85.481 7.2143-128.12z"/><path id="path5096" style="fill:#f59e0b" d="m3167.8 2455.8-958.91-256.94 918.48 379.02c16.254-40.166 29.695-80.95 40.425-122.08z"/><path id="path5098" style="fill:#f59e0b" d="m2193.8 2193.7-915.73-377.9c-16.839 39.862-30.891 80.339-42.235 121.22l957.97 256.69z"/><path id="path5100" style="fill:#f59e0b" d="m2193.2 2195.7-984.3-128.27c-5.8648 42.724-8.894 85.578-9.1995 128.31l993.5-0.038z"/><path id="path5102" style="fill:#f59e0b" d="m3065.5 2697.9-857.91-495.31 787.6 602.66c25.839-34.381 49.283-70.252 70.308-107.35z"/><path id="path5104" style="fill:#f59e0b" d="m2908.2 2906.1-701.97-701.97 605.92 787.48c34.159-26.658 66.192-55.257 96.05-85.513z"/><path id="path5106" style="fill:#f59e0b" d="m2195.7 2192.1-604.1-785.14c-34.514 26.102-66.922 54.13-97.185 83.858l701.28 701.28z"/><path id="path5108" style="fill:#f59e0b" d="m2194.2 2193.6-788.29-603.24c-26.441 34.067-50.492 69.666-72.122 106.52l860.41 496.72z"/><path id="path5110" style="fill:#f59e0b" d="m2700.6 3063.4-495.31-857.91 380.75 915.72c39.568-16.856 77.806-36.198 114.56-57.812z"/><path id="path5112" style="fill:#f59e0b" d="m2460.3 3165-256.94-958.91 131 984.94c42.912-6.0064 84.952-14.758 125.94-26.031z"/><path id="path5114" style="fill:#f59e0b" d="m2200.2 2190.5-130.59-982c-42.941 5.3476-85.021 13.416-126.09 24.031l256.69 957.97z"/><path id="path5116" style="fill:#f59e0b" d="m2198.2 2191-381.06-916.56c-39.932 16.283-78.56 35.086-115.72 56.188l496.78 860.37z"/><path id="path5118" style="fill:#f59e0b" d="m2201.2 3198.7-0.0001-990.62-128.12 983.41c42.694 5.1867 85.481 7.5549 128.12 7.2143z"/><path id="path5120" style="fill:#f59e0b" d="m1942.2 3166.6 256.94-958.91-379.02 918.48c40.166 16.254 80.95 29.695 122.08 40.425z"/><path id="path5122" style="fill:#f59e0b" d="m2204.3 2192.5 377.9-915.73c-39.862-16.839-80.339-30.891-121.22-42.235l-256.69 957.97z"/><path id="path5124" style="fill:#f59e0b" d="m2202.3 2192 128.27-984.3c-42.724-5.8648-85.578-8.8941-128.31-9.1995l0.038 993.5z"/><path id="path5126" style="fill:#f59e0b" d="m1702.2 3065.5 495.31-857.91-602.66 787.6c34.381 25.839 70.252 49.283 107.35 70.308z"/><path id="path5128" style="fill:#f59e0b" d="m1494 2908.2 701.97-701.97-787.48 605.92c26.658 34.159 55.257 66.192 85.512 96.049z"/><path id="path5130" style="fill:#f59e0b" d="m2208 2195.6 785.14-604.1c-26.102-34.514-54.13-66.922-83.858-97.185l-701.28 701.28z"/><path id="path5132" style="fill:#f59e0b" d="m2206.5 2194.1 603.24-788.29c-34.067-26.441-69.666-50.491-106.52-72.122l-496.72 860.41z"/></g></g></g><metadata><rdf:RDF><cc:Work><dc:format>image/svg+xml</dc:format><dc:type rdf:resource="http://purl.org/dc/dcmitype/StillImage"/><cc:license rdf:resource="http://creativecommons.org/licenses/publicdomain/"/><dc:publisher><cc:Agent rdf:about="http://openclipart.org/"><dc:title>Openclipart</dc:title></cc:Agent></dc:publisher><dc:title>abstract sun 4 (48 rays)</dc:title><dc:date>2011-08-24T09:58:25</dc:date><dc:description/><dc:source>https://openclipart.org/detail/157903/abstract-sun-4-48-rays-by-worker</dc:source><dc:creator><cc:Agent><dc:title>worker</dc:title></cc:Agent></dc:creator><dc:subject><rdf:Bag><rdf:li>abstract</rdf:li><rdf:li>ray</rdf:li><rdf:li>rays</rdf:li><rdf:li>sun</rdf:li><rdf:li>sunray</rdf:li><rdf:li>sunshine</rdf:li></rdf:Bag></dc:subject></cc:Work><cc:License rdf:about="http://creativecommons.org/licenses/publicdomain/"><cc:permits rdf:resource="http://creativecommons.org/ns#Reproduction"/><cc:permits rdf:resource="http://creativecommons.org/ns#Distribution"/><cc:permits rdf:resource="http://creativecommons.org/ns#DerivativeWorks"/></cc:License></rdf:RDF></metadata></svg>