<?xml version="1.0" encoding="utf-8"?>

<!DOCTYPE svg PUBLIC "-//W3C//DTD SVG 1.1//EN" "http://www.w3.org/Graphics/SVG/1.1/DTD/svg11.dtd">
<svg version="1.1" id="Layer_1" xmlns="http://www.w3.org/2000/svg" xmlns:xlink="http://www.w3.org/1999/xlink" x="0px" y="0px"
	 viewBox="0 0 1659.098 1659.098" enable-background="new 0 0 1659.098 1659.098" xml:space="preserve">
<g>
	<polygon style="fill:#f59e0b" stroke="#f59e0b" points="209.419,1161.349 143.032,1240.466 276.457,1263.993 313.787,1199.336 	"/>
	<polygon style="fill:#f59e0b" stroke="#f59e0b" points="575.059,897.739 579.108,920.702 590.766,940.895 	"/>
	<polygon style="fill:#f59e0b" stroke="#f59e0b" points="567.084,852.511 567.084,875.828 575.059,897.739 	"/>
	<polygon style="fill:#f59e0b" stroke="#f59e0b" points="161.224,1048.624 82.107,1115.011 209.419,1161.349 257.409,1104.157 	"/>
	<polygon style="fill:#f59e0b" stroke="#f59e0b" points="133.335,929.242 43.892,980.882 161.224,1048.624 218.416,1000.634 	"/>
	<polygon style="fill:#f59e0b" stroke="#f59e0b" points="567.084,806.586 563.035,829.549 567.084,852.511 	"/>
	<polygon style="fill:#f59e0b" stroke="#f59e0b" points="292.273,1062.607 257.409,1104.157 340.906,1152.364 359.944,1119.39 	"/>
	<polygon style="fill:#f59e0b" stroke="#f59e0b" points="567.084,875.828 558.86,853.231 554.483,878.05 567.084,899.876 	"/>
	<polygon style="fill:#f59e0b" stroke="#f59e0b" points="126.601,806.831 29.549,842.155 133.335,929.242 197.992,891.913 	"/>
	<polygon style="fill:#f59e0b" stroke="#f59e0b" points="575.059,761.359 567.084,783.269 567.084,806.586 	"/>
	<polygon style="fill:#f59e0b" stroke="#f59e0b" points="563.035,829.549 558.86,805.867 550.24,829.549 558.86,853.231 	"/>
	<polygon style="fill:#f59e0b" stroke="#f59e0b" points="259.966,965.77 218.416,1000.634 292.273,1062.607 316.748,1033.44 	"/>
	<polygon style="fill:#f59e0b" stroke="#f59e0b" points="141.225,685.111 39.514,703.045 126.601,806.831 196.758,781.296 	"/>
	<polygon style="fill:#f59e0b" stroke="#f59e0b" points="590.767,718.203 579.108,738.396 575.059,761.359 	"/>
	<polygon style="fill:#f59e0b" stroke="#f59e0b" points="244.964,864.793 197.992,891.913 259.966,965.77 289.133,941.295 	"/>
	<polygon style="fill:#f59e0b" stroke="#f59e0b" points="567.084,783.269 567.084,759.222 554.483,781.047 558.86,805.867 	"/>
	<polygon style="fill:#f59e0b" stroke="#f59e0b" points="541.053,854.789 550.24,829.549 541.053,804.309 375.549,1090.972 331.904,1015.377 316.748,1033.44 
		371.733,1098.969 526.882,830.244 	"/>
	<polygon style="fill:#f59e0b" stroke="#f59e0b" points="176.763,567.779 73.483,567.779 141.225,685.111 214.75,672.146 	"/>
	<polygon style="fill:#f59e0b" stroke="#f59e0b" points="613.729,678.43 598.741,696.292 590.767,718.203 	"/>
	<polygon style="fill:#f59e0b" stroke="#f59e0b" points="579.108,738.396 583.284,714.714 567.084,734.02 567.084,759.222 	"/>
	<polygon style="fill:#f59e0b" stroke="#f59e0b" points="247.725,762.746 196.758,781.296 244.964,864.793 277.939,845.755 	"/>
	<polygon style="fill:#f59e0b" stroke="#f59e0b" points="541.053,804.309 554.483,781.047 549.819,754.596 337.05,1008.164 307.196,926.139 289.133,941.295 
		331.904,1015.377 531.36,777.676 	"/>
	<polygon style="fill:#f59e0b" stroke="#f59e0b" points="643.249,643.25 625.388,658.237 613.729,678.43 	"/>
	<polygon style="fill:#f59e0b" stroke="#f59e0b" points="232.137,458.401 130.425,440.466 176.763,567.779 251.423,567.779 	"/>
	<polygon style="fill:#f59e0b" stroke="#f59e0b" points="268.165,662.728 214.75,672.146 247.725,762.746 283.505,749.723 	"/>
	<polygon style="fill:#f59e0b" stroke="#f59e0b" points="598.741,696.292 606.966,673.695 587.66,689.894 583.284,714.714 	"/>
	<polygon style="fill:#f59e0b" stroke="#f59e0b" points="549.819,754.596 567.084,734.02 567.084,707.16 313.516,919.928 298.359,833.966 277.939,845.755 307.196,926.139 
		544.897,726.684 	"/>
	<polygon style="fill:#f59e0b" stroke="#f59e0b" points="305.662,360.3 208.61,324.976 232.137,458.401 305.662,471.365 	"/>
	<polygon style="fill:#f59e0b" stroke="#f59e0b" points="678.431,613.729 658.237,625.388 643.249,643.25 	"/>
	<polygon style="fill:#f59e0b" stroke="#f59e0b" points="305.662,567.779 251.423,567.779 268.165,662.728 305.662,656.116 	"/>
	<polygon style="fill:#f59e0b" stroke="#f59e0b" points="625.388,658.237 637.411,637.411 615.586,650.013 606.966,673.695 	"/>
	<polygon style="fill:#f59e0b" stroke="#f59e0b" points="567.084,707.16 587.66,689.894 592.324,663.443 305.662,828.947 305.662,741.659 283.505,749.723 298.359,833.966 
		567.084,678.817 	"/>
	<polygon style="fill:#f59e0b" stroke="#f59e0b" points="395.105,276.457 305.662,224.817 305.662,360.3 375.819,385.835 	"/>
	<polygon style="fill:#f59e0b" stroke="#f59e0b" points="718.203,590.767 696.292,598.741 678.431,613.729 	"/>
	<polygon style="fill:#f59e0b" stroke="#f59e0b" points="658.237,625.388 673.695,606.966 650.013,615.586 637.411,637.411 	"/>
	<polygon style="fill:#f59e0b" stroke="#f59e0b" points="359.077,480.784 305.662,471.365 305.662,567.779 343.737,567.779 	"/>
	<polygon style="fill:#f59e0b" stroke="#f59e0b" points="592.324,663.443 615.586,650.013 624.772,624.772 313.725,737.984 328.883,652.022 305.662,656.116 
		305.662,741.659 597.246,635.531 	"/>
	<polygon style="fill:#f59e0b" stroke="#f59e0b" points="761.359,575.059 738.396,579.108 718.203,590.767 	"/>
	<polygon style="fill:#f59e0b" stroke="#f59e0b" points="497.749,209.419 418.631,143.032 395.105,276.457 459.762,313.787 	"/>
	<polygon style="fill:#f59e0b" stroke="#f59e0b" points="426.787,404.386 375.819,385.835 359.077,480.784 396.574,487.396 	"/>
	<polygon style="fill:#f59e0b" stroke="#f59e0b" points="696.292,598.741 714.714,583.284 689.894,587.66 673.695,606.966 	"/>
	<polygon style="fill:#f59e0b" stroke="#f59e0b" points="624.772,624.772 650.013,615.586 663.443,592.324 337.462,649.804 367.316,567.779 343.737,567.779 
		328.883,652.022 634.466,598.139 	"/>
	<polygon style="fill:#f59e0b" stroke="#f59e0b" points="610.474,161.224 544.087,82.107 497.749,209.419 554.941,257.409 	"/>
	<polygon style="fill:#f59e0b" stroke="#f59e0b" points="806.586,567.084 783.269,567.084 761.359,575.059 	"/>
	<polygon style="fill:#f59e0b" stroke="#f59e0b" points="738.396,579.108 759.222,567.084 734.02,567.084 714.714,583.284 	"/>
	<polygon style="fill:#f59e0b" stroke="#f59e0b" points="506.734,340.906 459.762,313.787 426.787,404.386 462.566,417.408 	"/>
	<polygon style="fill:#f59e0b" stroke="#f59e0b" points="663.443,592.324 689.894,587.66 707.16,567.084 376.15,567.084 419.795,491.49 396.574,487.396 367.316,567.779 
		677.614,567.779 	"/>
	<polygon style="fill:#f59e0b" stroke="#f59e0b" points="852.512,567.084 829.549,563.035 806.586,567.084 	"/>
	<polygon style="fill:#f59e0b" stroke="#f59e0b" points="729.856,133.335 678.215,43.892 610.474,161.224 658.464,218.416 	"/>
	<polygon style="fill:#f59e0b" stroke="#f59e0b" points="596.491,292.273 554.941,257.409 506.734,340.906 539.708,359.944 	"/>
	<polygon style="fill:#f59e0b" stroke="#f59e0b" points="783.269,567.084 805.867,558.86 781.047,554.483 759.222,567.084 	"/>
	<polygon style="fill:#f59e0b" stroke="#f59e0b" points="707.16,567.084 734.02,567.084 754.596,549.819 428.615,492.34 484.723,425.473 462.566,417.408 419.795,491.49 
		725.378,545.373 	"/>
	<polygon style="fill:#f59e0b" stroke="#f59e0b" points="852.266,126.601 816.943,29.549 729.856,133.335 767.185,197.992 	"/>
	<polygon style="fill:#f59e0b" stroke="#f59e0b" points="897.739,575.059 875.828,567.084 852.512,567.084 	"/>
	<polygon style="fill:#f59e0b" stroke="#f59e0b" points="693.328,259.966 658.464,218.416 596.491,292.273 625.658,316.748 	"/>
	<polygon style="fill:#f59e0b" stroke="#f59e0b" points="829.549,563.035 853.231,558.859 829.549,550.24 805.867,558.86 	"/>
	<polygon style="fill:#f59e0b" stroke="#f59e0b" points="754.596,549.819 781.047,554.483 804.309,541.053 493.262,427.841 560.129,371.733 539.708,359.944 
		484.723,425.473 776.307,531.601 	"/>
	<polygon style="fill:#f59e0b" stroke="#f59e0b" points="973.987,141.225 956.053,39.514 852.266,126.601 877.801,196.758 	"/>
	<polygon style="fill:#f59e0b" stroke="#f59e0b" points="940.895,590.766 920.702,579.108 897.739,575.059 	"/>
	<polygon style="fill:#f59e0b" stroke="#f59e0b" points="794.305,244.964 767.185,197.992 693.328,259.966 717.802,289.133 	"/>
	<polygon style="fill:#f59e0b" stroke="#f59e0b" points="875.828,567.084 899.876,567.084 878.05,554.483 853.231,558.859 	"/>
	<polygon style="fill:#f59e0b" stroke="#f59e0b" points="804.309,541.053 829.549,550.24 854.789,541.053 568.126,375.549 643.721,331.904 625.658,316.748 
		560.129,371.733 828.854,526.882 	"/>
	<polygon style="fill:#f59e0b" stroke="#f59e0b" points="1091.319,176.763 1091.319,73.483 973.987,141.225 986.951,214.75 	"/>
	<polygon style="fill:#f59e0b" stroke="#f59e0b" points="980.668,613.729 962.806,598.741 940.895,590.766 	"/>
	<polygon style="fill:#f59e0b" stroke="#f59e0b" points="896.352,247.725 877.801,196.758 794.305,244.964 813.342,277.939 	"/>
	<polygon style="fill:#f59e0b" stroke="#f59e0b" points="920.702,579.108 944.384,583.284 925.078,567.084 899.876,567.084 	"/>
	<polygon style="fill:#f59e0b" stroke="#f59e0b" points="854.789,541.053 878.05,554.483 904.502,549.819 650.934,337.05 732.959,307.196 717.802,289.133 643.721,331.904 
		881.422,531.36 	"/>
	<polygon style="fill:#f59e0b" stroke="#f59e0b" points="1015.848,643.249 1000.861,625.388 980.668,613.729 	"/>
	<polygon style="fill:#f59e0b" stroke="#f59e0b" points="1200.697,232.137 1218.631,130.425 1091.319,176.763 1091.319,251.423 	"/>
	<polygon style="fill:#f59e0b" stroke="#f59e0b" points="996.37,268.165 986.951,214.75 896.352,247.725 909.375,283.505 	"/>
	<polygon style="fill:#f59e0b" stroke="#f59e0b" points="962.806,598.741 985.403,606.966 969.203,587.66 944.384,583.284 	"/>
	<polygon style="fill:#f59e0b" stroke="#f59e0b" points="904.502,549.819 925.078,567.084 951.938,567.084 739.169,313.516 825.132,298.359 813.342,277.939 
		732.959,307.196 932.414,544.897 	"/>
	<polygon style="fill:#f59e0b" stroke="#f59e0b" points="1045.369,678.43 1033.71,658.237 1015.848,643.249 	"/>
	<polygon style="fill:#f59e0b" stroke="#f59e0b" points="1298.798,305.662 1334.122,208.61 1200.697,232.137 1187.733,305.662 	"/>
	<polygon style="fill:#f59e0b" stroke="#f59e0b" points="1091.319,305.662 1091.319,251.423 996.37,268.165 1002.982,305.662 	"/>
	<polygon style="fill:#f59e0b" stroke="#f59e0b" points="1000.861,625.388 1021.686,637.411 1009.085,615.586 985.403,606.966 	"/>
	<polygon style="fill:#f59e0b" stroke="#f59e0b" points="951.938,567.084 969.203,587.66 995.655,592.324 830.151,305.662 917.439,305.662 909.375,283.505 
		825.132,298.359 980.281,567.084 	"/>
	<polygon style="fill:#f59e0b" stroke="#f59e0b" points="1382.641,395.105 1434.281,305.662 1298.798,305.662 1273.263,375.819 	"/>
	<polygon style="fill:#f59e0b" stroke="#f59e0b" points="1068.331,718.203 1060.356,696.292 1045.369,678.43 	"/>
	<polygon style="fill:#f59e0b" stroke="#f59e0b" points="1178.314,359.077 1187.733,305.662 1091.319,305.662 1091.319,343.737 	"/>
	<polygon style="fill:#f59e0b" stroke="#f59e0b" points="1033.71,658.237 1052.132,673.695 1043.512,650.013 1021.686,637.411 	"/>
	<polygon style="fill:#f59e0b" stroke="#f59e0b" points="995.655,592.324 1009.085,615.586 1034.325,624.772 921.114,313.725 1007.076,328.883 1002.982,305.662 
		917.439,305.662 1023.567,597.246 	"/>
	<polygon style="fill:#f59e0b" stroke="#f59e0b" points="1449.679,497.749 1516.066,418.631 1382.641,395.105 1345.311,459.762 	"/>
	<polygon style="fill:#f59e0b" stroke="#f59e0b" points="1084.039,761.359 1079.99,738.396 1068.331,718.203 	"/>
	<polygon style="fill:#f59e0b" stroke="#f59e0b" points="1254.712,426.787 1273.263,375.819 1178.314,359.077 1171.702,396.574 	"/>
	<polygon style="fill:#f59e0b" stroke="#f59e0b" points="1060.356,696.292 1075.814,714.714 1071.438,689.894 1052.132,673.695 	"/>
	<polygon style="fill:#f59e0b" stroke="#f59e0b" points="1034.325,624.772 1043.512,650.013 1066.773,663.443 1009.294,337.462 1091.319,367.316 1091.319,343.737 
		1007.076,328.883 1060.959,634.466 	"/>
	<polygon style="fill:#f59e0b" stroke="#f59e0b" points="1497.874,610.474 1576.991,544.087 1449.679,497.749 1401.689,554.941 	"/>
	<polygon style="fill:#f59e0b" stroke="#f59e0b" points="1092.014,806.587 1092.014,783.269 1084.039,761.359 	"/>
	<polygon style="fill:#f59e0b" stroke="#f59e0b" points="1079.99,738.396 1092.014,759.222 1092.014,734.02 1075.814,714.714 	"/>
	<polygon style="fill:#f59e0b" stroke="#f59e0b" points="1318.192,506.734 1345.311,459.762 1254.712,426.787 1241.69,462.566 	"/>
	<polygon style="fill:#f59e0b" stroke="#f59e0b" points="1066.773,663.443 1071.438,689.894 1092.014,707.16 1092.014,376.15 1167.608,419.795 1171.702,396.574 
		1091.319,367.316 1091.319,677.614 	"/>
	<polygon style="fill:#f59e0b" stroke="#f59e0b" points="1525.763,729.856 1615.206,678.215 1497.874,610.474 1440.682,658.464 	"/>
	<polygon style="fill:#f59e0b" stroke="#f59e0b" points="1092.014,852.512 1096.063,829.549 1092.014,806.587 	"/>
	<polygon style="fill:#f59e0b" stroke="#f59e0b" points="1092.014,783.269 1100.238,805.867 1104.615,781.048 1092.014,759.222 	"/>
	<polygon style="fill:#f59e0b" stroke="#f59e0b" points="1366.825,596.491 1401.689,554.941 1318.192,506.734 1299.154,539.708 	"/>
	<polygon style="fill:#f59e0b" stroke="#f59e0b" points="1092.014,707.16 1092.014,734.02 1109.279,754.596 1166.758,428.615 1233.625,484.723 1241.69,462.566 
		1167.608,419.795 1113.725,725.378 	"/>
	<polygon style="fill:#f59e0b" stroke="#f59e0b" points="1084.039,897.739 1092.014,875.828 1092.014,852.512 	"/>
	<polygon style="fill:#f59e0b" stroke="#f59e0b" points="1532.497,852.266 1629.549,816.943 1525.763,729.856 1461.106,767.185 	"/>
	<polygon style="fill:#f59e0b" stroke="#f59e0b" points="1096.063,829.549 1100.238,853.231 1108.858,829.549 1100.238,805.867 	"/>
	<polygon style="fill:#f59e0b" stroke="#f59e0b" points="1399.132,693.328 1440.682,658.464 1366.825,596.491 1342.35,625.658 	"/>
	<polygon style="fill:#f59e0b" stroke="#f59e0b" points="1109.279,754.596 1104.615,781.048 1118.045,804.309 1231.256,493.262 1287.365,560.129 1299.154,539.708 
		1233.625,484.723 1127.497,776.307 	"/>
	<polygon style="fill:#f59e0b" stroke="#f59e0b" points="1068.331,940.895 1079.99,920.702 1084.039,897.739 	"/>
	<polygon style="fill:#f59e0b" stroke="#f59e0b" points="1532.497,852.266 1462.34,877.801 1517.873,973.987 1619.584,956.053 	"/>
	<polygon style="fill:#f59e0b" stroke="#f59e0b" points="1092.014,875.828 1092.014,899.876 1104.615,878.05 1100.238,853.231 	"/>
	<polygon style="fill:#f59e0b" stroke="#f59e0b" points="1414.134,794.305 1461.106,767.185 1399.132,693.328 1369.965,717.802 	"/>
	<polygon style="fill:#f59e0b" stroke="#f59e0b" points="1118.045,804.309 1108.858,829.549 1118.045,854.789 1283.549,568.126 1327.194,643.721 1342.35,625.658 
		1287.365,560.129 1132.216,828.854 	"/>
	<polygon style="fill:#f59e0b" stroke="#f59e0b" points="1045.369,980.668 1060.357,962.806 1068.331,940.895 	"/>
	<polygon style="fill:#f59e0b" stroke="#f59e0b" points="1482.335,1091.319 1585.615,1091.319 1517.873,973.987 1444.348,986.951 	"/>
	<polygon style="fill:#f59e0b" stroke="#f59e0b" points="1079.99,920.702 1075.814,944.384 1092.014,925.078 1092.014,899.876 	"/>
	<polygon style="fill:#f59e0b" stroke="#f59e0b" points="1381.159,813.342 1411.372,896.352 1462.34,877.801 1414.134,794.305 	"/>
	<polygon style="fill:#f59e0b" stroke="#f59e0b" points="1118.045,854.789 1104.615,878.05 1109.279,904.502 1322.048,650.934 1351.902,732.959 1369.965,717.802 
		1327.194,643.721 1127.738,881.422 	"/>
	<polygon style="fill:#f59e0b" stroke="#f59e0b" points="1015.849,1015.848 1033.71,1000.861 1045.369,980.668 	"/>
	<polygon style="fill:#f59e0b" stroke="#f59e0b" points="1426.961,1200.697 1528.672,1218.631 1482.335,1091.319 1407.675,1091.319 	"/>
	<polygon style="fill:#f59e0b" stroke="#f59e0b" points="1390.933,996.37 1444.348,986.951 1411.372,896.352 1375.593,909.375 	"/>
	<polygon style="fill:#f59e0b" stroke="#f59e0b" points="1060.357,962.806 1052.132,985.403 1071.438,969.203 1075.814,944.384 	"/>
	<polygon style="fill:#f59e0b" stroke="#f59e0b" points="1114.2,932.414 1109.279,904.502 1092.014,925.078 1092.014,951.938 1345.582,739.169 1360.739,825.132 
		1381.159,813.342 1351.902,732.959 	"/>
	<polygon style="fill:#f59e0b" stroke="#f59e0b" points="980.668,1045.369 1000.861,1033.71 1015.849,1015.848 	"/>
	<polygon style="fill:#f59e0b" stroke="#f59e0b" points="1353.436,1298.798 1450.488,1334.122 1426.961,1200.697 1353.436,1187.733 	"/>
	<polygon style="fill:#f59e0b" stroke="#f59e0b" points="1033.71,1000.861 1021.686,1021.686 1043.512,1009.085 1052.132,985.403 	"/>
	<polygon style="fill:#f59e0b" stroke="#f59e0b" points="1353.436,1091.319 1407.675,1091.319 1390.933,996.37 1353.436,1002.982 	"/>
	<polygon style="fill:#f59e0b" stroke="#f59e0b" points="1092.014,951.938 1071.438,969.203 1066.774,995.655 1353.436,830.151 1353.436,917.439 1375.593,909.375 
		1360.739,825.132 1092.014,980.281 	"/>
	<polygon style="fill:#f59e0b" stroke="#f59e0b" points="940.895,1068.331 962.806,1060.356 980.668,1045.369 	"/>
	<polygon style="fill:#f59e0b" stroke="#f59e0b" points="1263.993,1382.641 1353.436,1434.281 1353.436,1298.798 1283.279,1273.263 	"/>
	<polygon style="fill:#f59e0b" stroke="#f59e0b" points="1000.861,1033.71 985.403,1052.132 1009.085,1043.512 1021.686,1021.686 	"/>
	<polygon style="fill:#f59e0b" stroke="#f59e0b" points="1300.021,1178.314 1353.436,1187.733 1353.436,1091.319 1315.361,1091.319 	"/>
	<polygon style="fill:#f59e0b" stroke="#f59e0b" points="1066.774,995.655 1043.512,1009.085 1034.325,1034.325 1345.373,921.113 1330.215,1007.076 1353.436,1002.982 
		1353.436,917.439 1061.852,1023.567 	"/>
	<polygon style="fill:#f59e0b" stroke="#f59e0b" points="1161.349,1449.679 1240.466,1516.066 1263.993,1382.641 1199.336,1345.311 	"/>
	<polygon style="fill:#f59e0b" stroke="#f59e0b" points="897.739,1084.039 920.702,1079.99 940.895,1068.331 	"/>
	<polygon style="fill:#f59e0b" stroke="#f59e0b" points="1232.311,1254.712 1283.279,1273.263 1300.021,1178.314 1262.524,1171.702 	"/>
	<polygon style="fill:#f59e0b" stroke="#f59e0b" points="962.806,1060.356 944.384,1075.814 969.203,1071.438 985.403,1052.132 	"/>
	<polygon style="fill:#f59e0b" stroke="#f59e0b" points="1034.325,1034.325 1009.085,1043.512 995.655,1066.773 1321.636,1009.294 1291.782,1091.319 1315.361,1091.319 
		1330.215,1007.076 1024.632,1060.959 	"/>
	<polygon style="fill:#f59e0b" stroke="#f59e0b" points="1048.624,1497.874 1115.011,1576.991 1161.349,1449.679 1104.157,1401.689 	"/>
	<polygon style="fill:#f59e0b" stroke="#f59e0b" points="852.512,1092.014 875.828,1092.014 897.739,1084.039 	"/>
	<polygon style="fill:#f59e0b" stroke="#f59e0b" points="920.702,1079.99 899.876,1092.014 925.078,1092.014 944.384,1075.814 	"/>
	<polygon style="fill:#f59e0b" stroke="#f59e0b" points="1152.364,1318.192 1199.336,1345.311 1232.311,1254.712 1196.532,1241.69 	"/>
	<polygon style="fill:#f59e0b" stroke="#f59e0b" points="995.655,1066.773 969.203,1071.438 951.938,1092.014 1282.948,1092.014 1239.303,1167.608 1262.524,1171.702 
		1291.782,1091.319 981.484,1091.319 	"/>
	<polygon style="fill:#f59e0b" stroke="#f59e0b" points="806.586,1092.014 829.549,1096.063 852.512,1092.014 	"/>
	<polygon style="fill:#f59e0b" stroke="#f59e0b" points="929.242,1525.763 980.882,1615.206 1048.624,1497.874 1000.634,1440.682 	"/>
	<polygon style="fill:#f59e0b" stroke="#f59e0b" points="1062.607,1366.825 1104.157,1401.689 1152.364,1318.192 1119.39,1299.154 	"/>
	<polygon style="fill:#f59e0b" stroke="#f59e0b" points="875.828,1092.014 853.231,1100.238 878.05,1104.615 899.876,1092.014 	"/>
	<polygon style="fill:#f59e0b" stroke="#f59e0b" points="951.938,1092.014 925.078,1092.014 904.502,1109.279 1230.483,1166.758 1174.375,1233.625 1196.532,1241.69 
		1239.303,1167.608 933.72,1113.725 	"/>
	<polygon style="fill:#f59e0b" stroke="#f59e0b" points="761.358,1084.039 783.269,1092.014 806.586,1092.014 	"/>
	<polygon style="fill:#f59e0b" stroke="#f59e0b" points="806.831,1532.497 842.155,1629.549 929.242,1525.763 891.913,1461.106 	"/>
	<polygon style="fill:#f59e0b" stroke="#f59e0b" points="829.549,1096.063 805.867,1100.238 829.549,1108.858 853.231,1100.238 	"/>
	<polygon style="fill:#f59e0b" stroke="#f59e0b" points="965.77,1399.132 1000.634,1440.682 1062.607,1366.825 1033.44,1342.35 	"/>
	<polygon style="fill:#f59e0b" stroke="#f59e0b" points="904.502,1109.279 878.05,1104.615 854.789,1118.045 1165.836,1231.256 1098.969,1287.365 1119.39,1299.154 
		1174.375,1233.625 882.791,1127.497 	"/>
	<polygon style="fill:#f59e0b" stroke="#f59e0b" points="685.111,1517.873 703.045,1619.584 806.831,1532.497 781.297,1462.34 	"/>
	<polygon style="fill:#f59e0b" stroke="#f59e0b" points="718.203,1068.331 738.396,1079.99 761.358,1084.039 	"/>
	<polygon style="fill:#f59e0b" stroke="#f59e0b" points="864.793,1414.133 891.913,1461.106 965.77,1399.132 941.295,1369.965 	"/>
	<polygon style="fill:#f59e0b" stroke="#f59e0b" points="783.269,1092.014 759.222,1092.014 781.047,1104.615 805.867,1100.238 	"/>
	<polygon style="fill:#f59e0b" stroke="#f59e0b" points="854.789,1118.045 829.549,1108.858 804.309,1118.045 1090.972,1283.549 1015.377,1327.194 1033.44,1342.35 
		1098.969,1287.365 830.244,1132.216 	"/>
	<polygon style="fill:#f59e0b" stroke="#f59e0b" points="678.43,1045.369 696.292,1060.356 718.203,1068.331 	"/>
	<polygon style="fill:#f59e0b" stroke="#f59e0b" points="567.779,1482.335 567.779,1585.615 685.111,1517.873 672.146,1444.348 	"/>
	<polygon style="fill:#f59e0b" stroke="#f59e0b" points="762.746,1411.372 781.297,1462.34 864.793,1414.133 845.755,1381.159 	"/>
	<polygon style="fill:#f59e0b" stroke="#f59e0b" points="738.396,1079.99 714.714,1075.814 734.02,1092.014 759.222,1092.014 	"/>
	<polygon style="fill:#f59e0b" stroke="#f59e0b" points="804.309,1118.045 781.047,1104.615 754.596,1109.279 1008.164,1322.048 926.139,1351.902 941.295,1369.965 
		1015.377,1327.194 777.676,1127.738 	"/>
	<polygon style="fill:#f59e0b" stroke="#f59e0b" points="458.401,1426.961 440.467,1528.672 567.779,1482.335 567.779,1407.675 	"/>
	<polygon style="fill:#f59e0b" stroke="#f59e0b" points="643.25,1015.849 658.237,1033.71 678.43,1045.369 	"/>
	<polygon style="fill:#f59e0b" stroke="#f59e0b" points="662.728,1390.933 672.146,1444.348 762.746,1411.372 749.723,1375.593 	"/>
	<polygon style="fill:#f59e0b" stroke="#f59e0b" points="696.292,1060.356 673.695,1052.132 689.894,1071.438 714.714,1075.814 	"/>
	<polygon style="fill:#f59e0b" stroke="#f59e0b" points="754.596,1109.279 734.02,1092.014 707.16,1092.014 919.929,1345.582 833.966,1360.739 845.755,1381.159 
		926.139,1351.902 726.684,1114.2 	"/>
	<polygon style="fill:#f59e0b" stroke="#f59e0b" points="360.3,1353.436 324.976,1450.488 458.401,1426.961 471.365,1353.436 	"/>
	<polygon style="fill:#f59e0b" stroke="#f59e0b" points="613.729,980.668 625.388,1000.861 643.25,1015.849 	"/>
	<polygon style="fill:#f59e0b" stroke="#f59e0b" points="658.237,1033.71 637.411,1021.686 650.013,1043.512 673.695,1052.132 	"/>
	<polygon style="fill:#f59e0b" stroke="#f59e0b" points="567.779,1353.436 567.779,1407.675 662.728,1390.933 656.116,1353.436 	"/>
	<polygon style="fill:#f59e0b" stroke="#f59e0b" points="707.16,1092.014 689.894,1071.438 663.443,1066.773 828.947,1353.436 741.659,1353.436 749.723,1375.593 
		833.966,1360.739 678.817,1092.014 	"/>
	<polygon style="fill:#f59e0b" stroke="#f59e0b" points="590.766,940.895 598.741,962.806 613.729,980.668 	"/>
	<polygon style="fill:#f59e0b" stroke="#f59e0b" points="276.457,1263.993 224.817,1353.436 360.3,1353.436 385.835,1283.279 	"/>
	<polygon style="fill:#f59e0b" stroke="#f59e0b" points="340.906,1152.364 313.787,1199.336 404.386,1232.311 417.408,1196.532 	"/>
	<polygon style="fill:#f59e0b" stroke="#f59e0b" points="579.108,920.702 567.084,899.876 567.084,925.078 583.284,944.384 	"/>
	<polygon style="fill:#f59e0b" stroke="#f59e0b" points="549.819,904.502 554.483,878.05 541.053,854.789 427.841,1165.836 371.733,1098.969 359.944,1119.39 
		425.473,1174.375 531.601,882.791 	"/>
	<polygon style="fill:#f59e0b" stroke="#f59e0b" points="404.386,1232.311 385.835,1283.279 480.784,1300.021 487.396,1262.524 	"/>
	<polygon style="fill:#f59e0b" stroke="#f59e0b" points="598.741,962.806 583.284,944.384 587.66,969.204 606.966,985.403 	"/>
	<polygon style="fill:#f59e0b" stroke="#f59e0b" points="567.084,951.938 567.084,925.078 549.819,904.502 492.34,1230.483 425.473,1174.375 417.408,1196.532 
		491.49,1239.303 545.373,933.72 	"/>
	<polygon style="fill:#f59e0b" stroke="#f59e0b" points="625.388,1000.861 606.966,985.403 615.586,1009.085 637.411,1021.686 	"/>
	<polygon style="fill:#f59e0b" stroke="#f59e0b" points="480.784,1300.021 471.365,1353.436 567.779,1353.436 567.779,1315.361 	"/>
	<polygon style="fill:#f59e0b" stroke="#f59e0b" points="592.324,995.655 587.66,969.204 567.084,951.938 567.084,1282.948 491.49,1239.303 487.396,1262.524 
		567.779,1291.782 567.779,981.484 	"/>
	<polygon style="fill:#f59e0b" stroke="#f59e0b" points="624.772,1034.325 615.586,1009.085 592.324,995.655 649.804,1321.636 567.779,1291.782 567.779,1315.361 
		652.022,1330.215 598.139,1024.632 	"/>
	<polygon style="fill:#f59e0b" stroke="#f59e0b" points="663.443,1066.773 650.013,1043.512 624.772,1034.325 737.984,1345.373 652.022,1330.215 656.116,1353.436 
		741.659,1353.436 635.531,1061.852 	"/>
</g>
</svg>
